<?xml version="1.0" standalone="no"?><!DOCTYPE svg PUBLIC "-//W3C//DTD SVG 1.1//EN" "http://www.w3.org/Graphics/SVG/1.1/DTD/svg11.dtd"><svg t="1635889633437" class="icon" viewBox="0 0 1024 1024" version="1.1" xmlns="http://www.w3.org/2000/svg" p-id="5982" xmlns:xlink="http://www.w3.org/1999/xlink" width="200" height="200"><defs><style type="text/css"></style></defs><path d="M512 128c212 0 384 172 384 384s-172 384-384 384-384-172-384-384 172-384 384-384m0-64C264.8 64 64 264.8 64 512s200.8 448 448 448 448-200.8 448-448S759.2 64 512 64z m238.4 254.4l-45.6-45.6L512 467.2 318.4 273.6l-45.6 45.6L467.2 512 273.6 705.6l45.6 45.6L512 557.6l193.6 193.6 45.6-45.6L557.6 512l192.8-193.6z" p-id="5983"></path></svg>