<?xml version="1.0" standalone="no"?><!DOCTYPE svg PUBLIC "-//W3C//DTD SVG 1.1//EN" "http://www.w3.org/Graphics/SVG/1.1/DTD/svg11.dtd"><svg t="1635889528256" class="icon" viewBox="0 0 1024 1024" version="1.1" xmlns="http://www.w3.org/2000/svg" p-id="3770" xmlns:xlink="http://www.w3.org/1999/xlink" width="200" height="200"><defs><style type="text/css"></style></defs><path d="M924.672 126.976q36.864 36.864 54.784 82.432t17.92 93.696-17.92 93.696-54.784 82.432l-392.192 389.12q-36.864 36.864-90.624 61.44t-113.664 28.672-122.368-16.384-115.712-73.728q-52.224-52.224-72.704-113.152t-16.384-121.344 28.16-113.664 60.928-90.112l348.16-345.088q9.216-9.216 27.136-4.608t27.136 13.824q8.192 9.216 13.312 27.136t-4.096 27.136l-347.136 344.064q-27.648 27.648-46.08 64.512t-21.504 78.848 12.288 84.992 55.296 82.944q35.84 35.84 79.36 50.688t86.528 12.288 81.92-18.944 66.56-44.032l391.168-388.096q27.648-27.648 39.424-57.344t11.264-58.88-13.824-56.832-36.864-51.2q-44.032-43.008-98.816-40.448t-110.08 57.856l-353.28 351.232q-23.552 23.552-23.04 52.224t18.944 47.104q22.528 22.528 51.712 18.432t47.616-22.528l320.512-318.464q9.216-9.216 27.136-4.608t27.136 13.824 14.336 27.136-4.096 27.136l-321.536 318.464q-36.864 36.864-70.656 51.2t-63.488 12.8-55.296-15.872-47.104-34.816q-17.408-16.384-31.232-41.984t-15.872-56.32 10.752-65.536 49.664-70.656q18.432-18.432 32.768-33.792 12.288-13.312 23.04-23.552t11.776-11.264l285.696-284.672q36.864-36.864 80.384-57.856t88.576-24.064 88.576 12.288 80.384 52.224z" p-id="3771"></path></svg>