<?xml version="1.0" standalone="no"?><!DOCTYPE svg PUBLIC "-//W3C//DTD SVG 1.1//EN" "http://www.w3.org/Graphics/SVG/1.1/DTD/svg11.dtd"><svg t="1635889608773" class="icon" viewBox="0 0 1024 1024" version="1.1" xmlns="http://www.w3.org/2000/svg" p-id="4349" xmlns:xlink="http://www.w3.org/1999/xlink" width="200" height="200"><defs><style type="text/css"></style></defs><path d="M512 689.230769a19.692308 19.692308 0 0 1 19.377231 16.147693l0.315077 3.544615v157.538461a19.692308 19.692308 0 0 1-39.069539 3.544616L492.307692 866.461538v-157.538461a19.692308 19.692308 0 0 1 19.692308-19.692308z m-110.670769-47.812923a19.692308 19.692308 0 0 1 2.244923 25.088l-2.284308 2.756923-112.797538 112.797539a19.692308 19.692308 0 0 1-30.129231-25.127385l2.284308-2.756923 112.797538-112.758154a19.692308 19.692308 0 0 1 27.844923 0z m260.529231-9.767384l2.756923 2.284307 118.153846 118.153846a19.692308 19.692308 0 0 1-25.127385 30.129231l-2.756923-2.284308-118.153846-118.153846a19.692308 19.692308 0 0 1 25.127385-30.12923zM315.076923 492.307692a19.692308 19.692308 0 0 1 3.544615 39.069539L315.076923 531.692308H157.538462a19.692308 19.692308 0 0 1-3.544616-39.069539L157.538462 492.307692h157.538461z m551.384615 0a19.692308 19.692308 0 0 1 3.544616 39.069539L866.461538 531.692308h-157.538461a19.692308 19.692308 0 0 1-3.544615-39.069539L708.923077 492.307692h157.538461zM267.067077 258.363077l2.756923 2.284308 112.758154 112.797538a19.692308 19.692308 0 0 1-25.088 30.129231l-2.756923-2.284308-112.797539-112.797538a19.692308 19.692308 0 0 1 25.127385-30.129231z m496.246154-16.423385a19.692308 19.692308 0 0 1 2.323692 25.127385l-2.284308 2.756923-112.797538 112.758154a19.692308 19.692308 0 0 1-30.129231-25.088l2.284308-2.756923 112.797538-112.797539a19.692308 19.692308 0 0 1 27.844923 0zM512 137.846154a19.692308 19.692308 0 0 1 19.377231 16.147692L531.692308 157.538462v157.538461a19.692308 19.692308 0 0 1-39.069539 3.544615L492.307692 315.076923V157.538462a19.692308 19.692308 0 0 1 19.692308-19.692308z" fill="#333333" p-id="4350"></path></svg>